<svg xmlns="http://www.w3.org/2000/svg" viewBox="0 0 150 50.91"><defs><style>.cls-1{fill:#782471;}.cls-2{fill:#58636b;}</style></defs><title>logo-rifiniti</title><g id="Layer_2" data-name="Layer 2"><g id="Layer_26" data-name="Layer 26"><path class="cls-1" d="M8.15,36.37c0,2.67-1.83,4.86-4.08,4.86S0,39,0,36.37V20.61c0-2.67,1.83-4.86,4.08-4.86s4.08,2.19,4.08,4.86Z"/><path class="cls-1" d="M23,44.43a6.32,6.32,0,0,1-6.11,6.48,6.32,6.32,0,0,1-6.11-6.48V12.55a6.32,6.32,0,0,1,6.11-6.48A6.32,6.32,0,0,1,23,12.55Z"/><path class="cls-1" d="M34.29,25.71A4.63,4.63,0,0,1,30,30.57a4.63,4.63,0,0,1-4.33-4.86V4.86A4.63,4.63,0,0,1,30,0a4.63,4.63,0,0,1,4.33,4.86Z"/><path class="cls-1" d="M46.09,33.54a4.59,4.59,0,1,1-9.17,0V23.45a4.59,4.59,0,1,1,9.17,0Z"/><path class="cls-2" d="M60.5,37.26a2.16,2.16,0,0,1-.64.82,2.23,2.23,0,0,1-.8.38,3.16,3.16,0,0,1-.7.1,3,3,0,0,1-.72-.1,2.24,2.24,0,0,1-.78-.38,2.15,2.15,0,0,1-.64-.82,3.19,3.19,0,0,1-.26-1.38V21.14a2.82,2.82,0,0,1,.26-1.3,2.34,2.34,0,0,1,.62-.78,2.08,2.08,0,0,1,.74-.38,2.67,2.67,0,0,1,.66-.1,2.92,2.92,0,0,1,.68.1,2.06,2.06,0,0,1,.76.38,2.35,2.35,0,0,1,.62.78,2.83,2.83,0,0,1,.26,1.3v1h.08a6.05,6.05,0,0,1,1.91-2.67,4.76,4.76,0,0,1,3.11-1.1,2.84,2.84,0,0,1,1.79.54,1.88,1.88,0,0,1,.7,1.59,2.42,2.42,0,0,1-.6,1.63,2.52,2.52,0,0,1-2,.7A4.28,4.28,0,0,0,62,24.37a6.11,6.11,0,0,0-1.24,4v7.55A3.2,3.2,0,0,1,60.5,37.26Z"/><path class="cls-2" d="M75.15,14.12a2.68,2.68,0,0,1-.9,2.07A3.18,3.18,0,0,1,72,17a3,3,0,0,1-2.19-.86,2.81,2.81,0,0,1,0-4.05A3,3,0,0,1,72,11.23a3.19,3.19,0,0,1,2.23.82A2.68,2.68,0,0,1,75.15,14.12Zm-.68,21.75a3.2,3.2,0,0,1-.26,1.38,2.16,2.16,0,0,1-.64.82,2.23,2.23,0,0,1-.8.38,3.16,3.16,0,0,1-.7.1,3,3,0,0,1-.72-.1,2.24,2.24,0,0,1-.78-.38,2.15,2.15,0,0,1-.64-.82,3.19,3.19,0,0,1-.26-1.38V21.26a3.19,3.19,0,0,1,.26-1.38,2.15,2.15,0,0,1,.64-.82,2.24,2.24,0,0,1,.78-.38,3,3,0,0,1,.72-.1,3.16,3.16,0,0,1,.7.1,2.23,2.23,0,0,1,.8.38,2.16,2.16,0,0,1,.64.82,3.2,3.2,0,0,1,.26,1.38Z"/><path class="cls-2" d="M78.17,22.79a2.57,2.57,0,0,1-1.1-.2,1.84,1.84,0,0,1-.66-.5,1.62,1.62,0,0,1-.32-.64,2.59,2.59,0,0,1-.08-.58,2.35,2.35,0,0,1,.08-.56,1.64,1.64,0,0,1,.32-.62,2,2,0,0,1,.66-.52,2.38,2.38,0,0,1,1.1-.22H80V16.08a14.88,14.88,0,0,1,.36-3.31A7.65,7.65,0,0,1,81.61,10a6,6,0,0,1,2.29-1.91,7.9,7.9,0,0,1,3.51-.7q3.05,0,3.05,2.13a2,2,0,0,1-.54,1.38,2.23,2.23,0,0,1-1.71.58,2.88,2.88,0,0,0-2.67,1.14,6.1,6.1,0,0,0-.7,3.19v3.13h2.65a2.39,2.39,0,0,1,1.1.22,2.05,2.05,0,0,1,.66.52,1.64,1.64,0,0,1,.32.62,2.36,2.36,0,0,1,.08.56,2.61,2.61,0,0,1-.08.58,1.62,1.62,0,0,1-.32.64,1.84,1.84,0,0,1-.66.5,2.58,2.58,0,0,1-1.1.2H84.84V35.88a3.2,3.2,0,0,1-.26,1.38,2.16,2.16,0,0,1-.64.82,2.23,2.23,0,0,1-.8.38,2.51,2.51,0,0,1-1.41,0,2.23,2.23,0,0,1-.8-.38,2.15,2.15,0,0,1-.64-.82A3.19,3.19,0,0,1,80,35.88V22.79Z"/><path class="cls-2" d="M97.3,14.12a2.68,2.68,0,0,1-.9,2.07,3.18,3.18,0,0,1-2.23.82A3,3,0,0,1,92,16.15a2.81,2.81,0,0,1,0-4.05,3,3,0,0,1,2.19-.86,3.19,3.19,0,0,1,2.23.82A2.68,2.68,0,0,1,97.3,14.12Zm-.68,21.75a3.2,3.2,0,0,1-.26,1.38,2.16,2.16,0,0,1-.64.82,2.23,2.23,0,0,1-.8.38,3.16,3.16,0,0,1-.7.1,3,3,0,0,1-.72-.1,2.24,2.24,0,0,1-.78-.38,2.15,2.15,0,0,1-.64-.82,3.19,3.19,0,0,1-.26-1.38V21.26a3.19,3.19,0,0,1,.26-1.38,2.15,2.15,0,0,1,.64-.82,2.24,2.24,0,0,1,.78-.38,3,3,0,0,1,.72-.1,3.16,3.16,0,0,1,.7.1,2.23,2.23,0,0,1,.8.38,2.17,2.17,0,0,1,.64.82,3.2,3.2,0,0,1,.26,1.38Z"/><path class="cls-2" d="M100.86,21.1a2.82,2.82,0,0,1,.26-1.3,2.13,2.13,0,0,1,.62-.76,2.25,2.25,0,0,1,.74-.36,2.24,2.24,0,0,1,1.33,0,2.26,2.26,0,0,1,.74.36,2.14,2.14,0,0,1,.62.76,2.83,2.83,0,0,1,.26,1.3V22h.08a6.23,6.23,0,0,1,2.23-2.55,6.41,6.41,0,0,1,3.75-1.1,7.25,7.25,0,0,1,3.23.66,6.37,6.37,0,0,1,2.21,1.75,7.08,7.08,0,0,1,1.26,2.49,10.48,10.48,0,0,1,.4,2.89v9.72a3.2,3.2,0,0,1-.26,1.38,2.17,2.17,0,0,1-.64.82,2.23,2.23,0,0,1-.8.38,3.16,3.16,0,0,1-.7.1,3,3,0,0,1-.72-.1,2.25,2.25,0,0,1-.78-.38,2.15,2.15,0,0,1-.64-.82,3.19,3.19,0,0,1-.26-1.38V27.52a13.66,13.66,0,0,0-.12-1.77,4.78,4.78,0,0,0-.52-1.67,3.47,3.47,0,0,0-1.1-1.22,3.25,3.25,0,0,0-1.87-.48,4.13,4.13,0,0,0-2,.46A4.27,4.27,0,0,0,106.78,24,5.25,5.25,0,0,0,106,25.7a6.65,6.65,0,0,0-.28,1.91v8.27a3.2,3.2,0,0,1-.26,1.38,2.17,2.17,0,0,1-.64.82,2.23,2.23,0,0,1-.8.38,3.17,3.17,0,0,1-.7.1,3,3,0,0,1-.72-.1,2.24,2.24,0,0,1-.78-.38,2.15,2.15,0,0,1-.64-.82,3.19,3.19,0,0,1-.26-1.38Z"/><path class="cls-2" d="M128.11,14.12a2.68,2.68,0,0,1-.9,2.07A3.18,3.18,0,0,1,125,17a3,3,0,0,1-2.19-.86,2.81,2.81,0,0,1,0-4.05,3,3,0,0,1,2.19-.86,3.19,3.19,0,0,1,2.23.82A2.68,2.68,0,0,1,128.11,14.12Zm-.68,21.75a3.2,3.2,0,0,1-.26,1.38,2.16,2.16,0,0,1-.64.82,2.23,2.23,0,0,1-.8.38,3.16,3.16,0,0,1-.7.1,3,3,0,0,1-.72-.1,2.24,2.24,0,0,1-.78-.38,2.15,2.15,0,0,1-.64-.82,3.19,3.19,0,0,1-.26-1.38V21.26a3.19,3.19,0,0,1,.26-1.38,2.16,2.16,0,0,1,.64-.82,2.24,2.24,0,0,1,.78-.38,3,3,0,0,1,.72-.1,3.16,3.16,0,0,1,.7.1,2.23,2.23,0,0,1,.8.38,2.17,2.17,0,0,1,.64.82,3.2,3.2,0,0,1,.26,1.38Z"/><path class="cls-2" d="M141.34,38.08a5.23,5.23,0,0,1-2.37.52,7.69,7.69,0,0,1-3.13-.54A4.59,4.59,0,0,1,134,36.58a5.65,5.65,0,0,1-.94-2.17,12.58,12.58,0,0,1-.26-2.63v-9h-1.57a2.58,2.58,0,0,1-1.1-.2,1.85,1.85,0,0,1-.66-.5,1.62,1.62,0,0,1-.32-.64,2.61,2.61,0,0,1-.08-.58,2.36,2.36,0,0,1,.08-.56,1.64,1.64,0,0,1,.32-.62,2.05,2.05,0,0,1,.66-.52,2.39,2.39,0,0,1,1.1-.22h1.57V15.6a2.93,2.93,0,0,1,.26-1.34,2.33,2.33,0,0,1,.62-.78,2,2,0,0,1,.76-.38,3,3,0,0,1,.72-.1,3.17,3.17,0,0,1,.7.1,2,2,0,0,1,.78.38,2.34,2.34,0,0,1,.62.78,2.93,2.93,0,0,1,.26,1.34v3.33h3a2.39,2.39,0,0,1,1.1.22,2,2,0,0,1,.66.52,1.65,1.65,0,0,1,.32.62,2.36,2.36,0,0,1,.08.56,2.61,2.61,0,0,1-.08.58,1.63,1.63,0,0,1-.32.64,1.84,1.84,0,0,1-.66.5,2.58,2.58,0,0,1-1.1.2h-3v9q0,2.89,1.85,2.89l.36,0,.4-.06.34,0h.22a1.69,1.69,0,0,1,1.39.56,1.92,1.92,0,0,1,.46,1.24A1.85,1.85,0,0,1,141.34,38.08Z"/><path class="cls-2" d="M150,14.12a2.68,2.68,0,0,1-.9,2.07,3.18,3.18,0,0,1-2.23.82,3,3,0,0,1-2.19-.86,2.81,2.81,0,0,1,0-4.05,3,3,0,0,1,2.19-.86,3.19,3.19,0,0,1,2.23.82A2.68,2.68,0,0,1,150,14.12Zm-.68,21.75a3.2,3.2,0,0,1-.26,1.38,2.16,2.16,0,0,1-.64.82,2.23,2.23,0,0,1-.8.38,3.16,3.16,0,0,1-.7.1,3,3,0,0,1-.72-.1,2.24,2.24,0,0,1-.78-.38,2.15,2.15,0,0,1-.64-.82,3.19,3.19,0,0,1-.26-1.38V21.26a3.19,3.19,0,0,1,.26-1.38,2.15,2.15,0,0,1,.64-.82,2.24,2.24,0,0,1,.78-.38,3,3,0,0,1,.72-.1,3.16,3.16,0,0,1,.7.1,2.23,2.23,0,0,1,.8.38,2.17,2.17,0,0,1,.64.82,3.2,3.2,0,0,1,.26,1.38Z"/></g></g></svg>